<svg width="21" height="16" viewBox="0 0 21 16" fill="none" xmlns="http://www.w3.org/2000/svg">
<path d="M20.3554 2.02681C20.0282 2.16122 19.6918 2.27468 19.3481 2.36682C19.755 1.94048 20.0653 1.43884 20.2547 0.889921C20.2972 0.766888 20.2532 0.63221 20.144 0.55172C20.0349 0.471192 19.8834 0.461545 19.7634 0.527452C19.0334 0.928508 18.2459 1.21674 17.4201 1.38526C16.5883 0.632323 15.4585 0.203796 14.2906 0.203796C11.8252 0.203796 9.81946 2.06178 9.81946 4.34549C9.81946 4.52535 9.83175 4.70423 9.85608 4.88062C6.79681 4.63181 3.95266 3.23887 1.99961 1.01955C1.93001 0.940454 1.82278 0.897797 1.71299 0.905974C1.60315 0.913925 1.50443 0.971316 1.44894 1.05953C1.05282 1.68917 0.843403 2.40932 0.843403 3.14206C0.843403 4.14005 1.22802 5.0869 1.90747 5.8268C1.70086 5.76051 1.5004 5.67769 1.30905 5.5793C1.20634 5.52632 1.08097 5.52714 0.978903 5.58133C0.8768 5.63556 0.812773 5.73523 0.810047 5.84421C0.809559 5.86256 0.809559 5.88091 0.809559 5.89952C0.809559 7.38915 1.67503 8.73032 2.99826 9.46128C2.88457 9.45077 2.77099 9.43551 2.65811 9.41554C2.54173 9.39493 2.42209 9.43272 2.34362 9.51495C2.26503 9.59709 2.239 9.71161 2.27524 9.81618C2.76501 11.2327 4.026 12.2746 5.55043 12.5923C4.28606 13.3259 2.84019 13.7101 1.32235 13.7101C1.00563 13.7101 0.687117 13.6929 0.375398 13.6587C0.220535 13.6416 0.0724658 13.7264 0.0197059 13.8628C-0.033054 13.9993 0.0228788 14.1515 0.154596 14.2297C2.10452 15.3879 4.35916 16 6.6747 16C11.2267 16 14.0744 14.0115 15.6616 12.3434C17.6409 10.2634 18.776 7.51019 18.776 4.78988C18.776 4.67623 18.7742 4.56149 18.7704 4.44708C19.5513 3.90208 20.2236 3.24249 20.7707 2.48439C20.8538 2.36927 20.8448 2.21707 20.7485 2.1111C20.6525 2.00495 20.4922 1.97066 20.3554 2.02681Z" fill="#0769DB" fill-opacity="0.71"/>
</svg>
