<svg width="25" height="24" viewBox="0 0 25 24" fill="none" xmlns="http://www.w3.org/2000/svg">
<path d="M14.9141 9.3V12.2H17.5141C17.7141 12.2 17.8141 12.4 17.8141 12.6L17.4141 14.5C17.4141 14.6 17.2141 14.7 17.1141 14.7H14.9141V22H11.9141V14.8H10.2141C10.0141 14.8 9.91406 14.7 9.91406 14.5V12.6C9.91406 12.4 10.0141 12.3 10.2141 12.3H11.9141V9C11.9141 7.3 13.2141 6 14.9141 6H17.6141C17.8141 6 17.9141 6.1 17.9141 6.3V8.7C17.9141 8.9 17.8141 9 17.6141 9H15.2141C15.0141 9 14.9141 9.1 14.9141 9.3Z" stroke="#0769DB" stroke-width="1.5" stroke-miterlimit="10" stroke-linecap="round"/>
<path d="M15.9141 22H9.91406C4.91406 22 2.91406 20 2.91406 15V9C2.91406 4 4.91406 2 9.91406 2H15.9141C20.9141 2 22.9141 4 22.9141 9V15C22.9141 20 20.9141 22 15.9141 22Z" stroke="#0769DB" stroke-width="1.5" stroke-linecap="round" stroke-linejoin="round"/>
</svg>
