<svg width="25" height="24" viewBox="0 0 25 24" fill="none" xmlns="http://www.w3.org/2000/svg">
<path d="M15.4141 22.75H9.41406C3.98406 22.75 1.66406 20.43 1.66406 15V9C1.66406 3.57 3.98406 1.25 9.41406 1.25H15.4141C20.8441 1.25 23.1641 3.57 23.1641 9V15C23.1641 20.43 20.8441 22.75 15.4141 22.75ZM9.41406 2.75C4.80406 2.75 3.16406 4.39 3.16406 9V15C3.16406 19.61 4.80406 21.25 9.41406 21.25H15.4141C20.0241 21.25 21.6641 19.61 21.6641 15V9C21.6641 4.39 20.0241 2.75 15.4141 2.75H9.41406Z" fill="#292D32"/>
<path d="M12.4141 16.25C10.0741 16.25 8.16406 14.34 8.16406 12C8.16406 9.66 10.0741 7.75 12.4141 7.75C14.7541 7.75 16.6641 9.66 16.6641 12C16.6641 14.34 14.7541 16.25 12.4141 16.25ZM12.4141 9.25C10.8941 9.25 9.66406 10.48 9.66406 12C9.66406 13.52 10.8941 14.75 12.4141 14.75C13.9341 14.75 15.1641 13.52 15.1641 12C15.1641 10.48 13.9341 9.25 12.4141 9.25Z" fill="#292D32"/>
<path d="M17.4141 7.5C17.2841 7.5 17.1541 7.47 17.0341 7.42C16.9141 7.37 16.8041 7.3 16.7041 7.21C16.6141 7.11 16.5341 7 16.4841 6.88C16.4341 6.76 16.4141 6.63 16.4141 6.5C16.4141 6.37 16.4341 6.24 16.4841 6.12C16.5441 5.99 16.6141 5.89 16.7041 5.79C16.7541 5.75 16.8041 5.7 16.8541 5.67C16.9141 5.63 16.9741 5.6 17.0341 5.58C17.0941 5.55 17.1541 5.53 17.2241 5.52C17.5441 5.45 17.8841 5.56 18.1241 5.79C18.2141 5.89 18.2841 5.99 18.3341 6.12C18.3841 6.24 18.4141 6.37 18.4141 6.5C18.4141 6.63 18.3841 6.76 18.3341 6.88C18.2841 7 18.2141 7.11 18.1241 7.21C18.0241 7.3 17.9141 7.37 17.7941 7.42C17.6741 7.47 17.5441 7.5 17.4141 7.5Z" fill="#292D32"/>
</svg>
